<svg xmlns="http://www.w3.org/2000/svg" version="1.1" xmlns:xlink="http://www.w3.org/1999/xlink" xmlns:svgjs="http://svgjs.com/svgjs" width="1440" height="560" preserveAspectRatio="none" viewBox="0 0 1440 560"><g mask="url(&quot;#SvgjsMask1006&quot;)" fill="none"><rect width="1440" height="560" x="0" y="0" fill="#0e2a47"></rect><path d="M 0,167 C 57.6,155.8 172.8,109 288,111 C 403.2,113 460.8,189.2 576,177 C 691.2,164.8 748.8,46.2 864,50 C 979.2,53.8 1036.8,196.4 1152,196 C 1267.2,195.6 1382.4,77.6 1440,48L1440 560L0 560z" fill="#184a7e"></path><path d="M 0,297 C 96,344.8 288,532 480,536 C 672,540 768,315 960,317 C 1152,319 1344,500.2 1440,546L1440 560L0 560z" fill="#2264ab"></path></g><defs><mask id="SvgjsMask1006"><rect width="1440" height="560" fill="#ffffff"></rect></mask></defs></svg>